Coordinates
version=1
nRows=54
nColumns=12
inDegrees=yes

Units are S.I. units (second, meters, Newtons, ...)
Angles are in degrees

endheader
time	SC_y	SC_z	SC_x	AC_y	AC_z	AC_x	GH_y	GH_z	GH_yy	EL_x	PS_y
       0.0              -11.92          38.47          27.56          56.09          -3.84          1.542         -122.3          77.29          62.83          114.1          57.89
   0.03155              -11.93          38.47          27.56          56.09         -3.839          1.543         -122.3          77.28          62.82          114.1          57.89
   0.06309              -11.93          38.47          27.56          56.09         -3.838          1.545         -122.3          77.28          62.82          114.1          57.89
   0.09464              -11.94          38.46          27.57          56.09         -3.838          1.546         -122.2          77.28          62.81          114.1          57.88
    0.1262              -11.94          38.46          27.57          56.09         -3.837          1.548         -122.2          77.27           62.8          114.0          57.88
    0.1577              -11.95          38.46          27.57          56.09         -3.836           1.55         -122.2          77.27          62.78          114.0          57.88
    0.1893              -11.96          38.45          27.58          56.09         -3.835          1.552         -122.1          77.26          62.77          114.0          57.87
    0.2208              -11.96          38.45          27.58          56.09         -3.834          1.555         -122.1          77.25          62.76          114.0          57.87
    0.2524              -11.97          38.45          27.58           56.1         -3.833          1.557         -122.0          77.25          62.75          114.0          57.86
    0.2839              -11.98          38.44          27.59           56.1         -3.832           1.56         -122.0          77.24          62.73          114.0          57.86
    0.3155              -11.99          38.44          27.59           56.1         -3.831          1.562         -121.9          77.23          62.72          114.0          57.85
     0.347               -12.0          38.44           27.6           56.1          -3.83          1.565         -121.9          77.23           62.7          113.9          57.85
    0.3786              -12.01          38.43           27.6           56.1         -3.828          1.569         -121.8          77.22          62.68          113.9          57.84
    0.4101              -12.02          38.43          27.61           56.1         -3.827          1.572         -121.8          77.21          62.66          113.9          57.84
    0.4417              -12.03          38.42          27.62           56.1         -3.825          1.576         -121.7           77.2          62.64          113.9          57.83
    0.4732              -12.05          38.42          27.62          56.11         -3.824           1.58         -121.6          77.19          62.62          113.8          57.82
    0.5048              -12.06          38.41          27.63          56.11         -3.822          1.584         -121.5          77.18          62.59          113.8          57.81
    0.5363              -12.08           38.4          27.64          56.11          -3.82          1.589         -121.4          77.16          62.57          113.8           57.8
    0.5679              -12.09          38.39          27.65          56.11         -3.818          1.594         -121.3          77.15          62.54          113.7          57.79
    0.5994              -12.11          38.39          27.66          56.12         -3.815            1.6         -121.2          77.14           62.5          113.7          57.78
    0.6309              -12.13          38.38          27.67          56.12         -3.813          1.606         -121.1          77.12          62.47          113.7          57.77
    0.6625              -12.16          38.37          27.68          56.12          -3.81          1.613         -121.0           77.1          62.43          113.6          57.76
     0.694              -12.18          38.36           27.7          56.13         -3.807          1.621         -120.8          77.08          62.38          113.6          57.75
    0.7256              -12.21          38.34          27.71          56.13         -3.803           1.63         -120.7          77.06          62.34          113.5          57.73
    0.7571              -12.24          38.33          27.73          56.13         -3.799          1.639         -120.5          77.03          62.28          113.4          57.71
    0.7887              -12.27          38.31          27.75          56.14         -3.795           1.65         -120.3          77.01          62.22          113.4          57.69
    0.8202              -12.31           38.3          27.77          56.14          -3.79          1.662         -120.1          76.98          62.16          113.3          57.67
    0.8518              -12.36          38.28          27.79          56.15         -3.784          1.675         -119.8          76.94          62.08          113.2          57.65
    0.8833               -12.4          38.26          27.82          56.16         -3.778           1.69         -119.5           76.9           62.0          113.1          57.62
    0.9149              -12.46          38.23          27.85          56.16         -3.771          1.707         -119.2          76.86           61.9          113.0          57.59
    0.9464              -12.52           38.2          27.88          56.17         -3.763          1.727         -118.9          76.81          61.79          112.8          57.55
     0.978               -12.6          38.17          27.92          56.18         -3.754          1.749         -118.4          76.75          61.66          112.7          57.51
      1.01              -12.68          38.13          27.97           56.2         -3.743          1.775         -117.9          76.68          61.52          112.5          57.46
     1.041              -12.78          38.09          28.02          56.21         -3.731          1.805         -117.4           76.6          61.35          112.3          57.41
     1.073              -12.89          38.04          28.08          56.23         -3.716           1.84         -116.7          76.51          61.15          112.1          57.34
     1.104              -13.03          37.98          28.16          56.25         -3.699          1.882         -115.9           76.4          60.92          111.8          57.26
     1.136              -13.19          37.91          28.24          56.27         -3.678          1.931         -115.0          76.27          60.64          111.5          57.17
     1.167              -13.38          37.82          28.35          56.29         -3.654           1.99         -113.9          76.12          60.31          111.1          57.06
     1.199              -13.61          37.72          28.47          56.33         -3.624          2.061         -112.5          75.93           59.9          110.6          56.93
      1.23               -13.9          37.59          28.63          56.37         -3.588          2.149         -110.9           75.7          59.41          110.0          56.77
     1.262              -14.25          37.44          28.82          56.42         -3.544          2.256         -108.9          75.42          58.81          109.3          56.57
     1.293              -14.68          37.24          29.05          56.48         -3.488          2.391         -106.3          75.07          58.05          108.4          56.32
     1.325              -15.23           37.0          29.35          56.56         -3.418           2.56         -103.2          74.63          57.09          107.2          56.01
     1.357              -15.93          36.69          29.73          56.66         -3.329          2.775         -99.11          74.07          55.88          105.8          55.61
     1.388              -16.83          36.29          30.22          56.78         -3.215          3.051         -93.92          73.35          54.33          103.9           55.1
      1.42              -17.98          35.78          30.84          56.94         -3.069          3.404         -87.27          72.43          52.34          101.5          54.45
     1.451              -19.45          35.13          31.63          57.15         -2.882          3.855         -78.77          71.25           49.8           98.5          53.62
     1.483              -21.29          34.31          32.63          57.41         -2.647          4.423         -68.08          69.77           46.6          94.67          52.57
     1.514              -23.54          33.31          33.85          57.73         -2.361          5.115         -55.05          67.96           42.7          90.01          51.29
     1.546              -26.15          32.15          35.27           58.1         -2.029          5.916         -39.96          65.87          38.18           84.6          49.81
     1.577              -28.97          30.89           36.8           58.5          -1.67          6.785         -23.61           63.6          33.29          78.75           48.2
     1.609               -31.8          29.64          38.33           58.9          -1.31          7.653          -7.26          61.34           28.4           72.9           46.6
      1.64               -34.4          28.48          39.74          59.26        -0.9785          8.455          7.837          59.24          23.88          67.49          45.11
     1.672              -36.65          27.48          40.96          59.58        -0.6922          9.146          20.86          57.44          19.99          62.83          43.84
